<svg width="182" height="28" viewBox="0 0 182 28" fill="none" xmlns="http://www.w3.org/2000/svg">
<path d="M72.0274 5.96839V27.5134H66.2924V25.8084C64.8664 26.8624 63.1304 27.4514 61.3634 27.4824C55.5974 27.2344 51.0714 22.4914 51.0714 16.7254C51.0714 10.9594 55.5974 6.21639 61.3634 5.96839C63.6884 6.06139 65.9204 7.05339 67.5634 8.75839L69.9814 7.23939L72.0274 5.96839ZM61.3634 21.8404C64.0914 21.7784 66.2924 19.4844 66.2304 16.7254C66.2304 14.6484 64.9594 12.7574 63.0064 11.9824C61.0844 11.1764 58.8524 11.6724 57.3954 13.1914C55.9384 14.7104 55.5664 16.9424 56.4344 18.8644C57.3024 20.7554 59.2554 21.9644 61.3634 21.8404Z" fill="white"/>
<path d="M87.1404 19.1744L91.0464 23.1114C89.1864 25.8394 86.0864 27.4824 82.7694 27.4824C77.0344 27.2034 72.5704 22.4604 72.5704 16.7254C72.5704 10.9904 77.0344 6.24739 82.7694 5.96839C86.0864 5.96839 89.1554 7.61139 91.0154 10.3704L87.1404 14.2764C86.3034 12.6334 84.6294 11.5794 82.7694 11.5484C80.0104 11.6724 77.8404 13.9664 77.8404 16.7254C77.8404 19.4844 80.0104 21.7784 82.7694 21.9024C84.6294 21.8714 86.3034 20.8174 87.1404 19.1744Z" fill="white"/>
<path d="M104.674 19.1744L108.58 23.1114C106.72 25.8394 103.62 27.4824 100.303 27.4824C94.5676 27.2034 90.1036 22.4604 90.1036 16.7254C90.1036 10.9904 94.5676 6.24739 100.303 5.96839C103.62 5.96839 106.689 7.61139 108.549 10.3704L104.674 14.2764C103.837 12.6334 102.163 11.5794 100.303 11.5484C97.5436 11.6724 95.3736 13.9664 95.3736 16.7254C95.3736 19.4844 97.5436 21.7784 100.303 21.9024C102.163 21.8714 103.837 20.8174 104.674 19.1744Z" fill="white"/>
<path d="M118.89 5.81339C124.687 5.93739 129.275 10.7734 129.151 16.5704C129.151 20.9724 126.485 24.9404 122.393 26.5524C118.301 28.1954 113.651 27.2034 110.613 24.0104C107.575 20.8174 106.769 16.1054 108.598 12.1064C110.396 8.10739 114.488 5.59639 118.89 5.81339ZM118.89 21.6854C121.649 21.6234 123.85 19.3294 123.788 16.5704C123.788 14.4624 122.517 12.5714 120.564 11.7964C118.611 11.0214 116.379 11.5174 114.922 13.0364C113.496 14.5554 113.124 16.7874 113.992 18.7094C114.86 20.6004 116.782 21.7784 118.89 21.6854Z" fill="white"/>
<path d="M143.124 5.62739H149.231V27.4824H143.403V25.5294C143 25.9634 142.535 26.3354 142.039 26.6454C140.768 27.4204 139.311 27.8234 137.823 27.8234C136.304 27.8234 134.816 27.4514 133.452 26.7384C132.15 25.9944 131.096 24.8474 130.476 23.4524C129.701 21.7164 129.36 19.8254 129.422 17.9344V5.62739H135.529V17.0354C135.436 18.3374 135.777 19.6394 136.459 20.7244C137.11 21.4994 138.071 21.9024 139.063 21.8404C139.807 21.8714 140.52 21.6544 141.14 21.2824C141.791 20.8484 142.287 20.2594 142.566 19.5464C142.969 18.5544 143.155 17.5004 143.124 16.4464V5.62739Z" fill="white"/>
<path d="M167.953 8.41739C169.565 10.4014 170.34 12.9434 170.185 15.5164V27.5134H164.295V16.4464C164.388 15.1754 164.047 13.9354 163.365 12.8814C162.745 12.1064 161.753 11.7034 160.761 11.7654C159.583 11.7034 158.436 12.1994 157.661 13.0984C156.824 14.2764 156.421 15.7024 156.514 17.1284V27.5134H150.655V5.99939H156.297V8.35539C156.948 7.67339 157.723 7.11539 158.622 6.74339C159.738 6.24739 160.978 5.99939 162.187 5.99939C164.388 5.93739 166.496 6.80539 167.953 8.41739Z" fill="white"/>
<path d="M181.443 22.0574L181.505 22.1504V27.4824C181.133 27.5134 180.761 27.5134 180.389 27.4824C178.808 27.3894 177.258 26.9244 175.894 26.1184C174.282 25.1884 173.011 23.8244 172.143 22.2124C171.492 21.1274 171.12 19.9184 170.965 18.6474C170.81 17.3144 170.965 3.82939 170.965 3.82939L176.855 0.202393V5.93739H181.505V11.0834H176.855V17.8104C176.948 18.8024 177.382 19.7634 178.033 20.5694C178.684 21.3444 179.583 21.8404 180.575 21.9954C180.823 22.0264 181.04 22.0574 181.288 22.0574C181.35 22.0574 181.412 22.0574 181.443 22.0574Z" fill="white"/>
<path d="M17.1196 24.3304L17.3539 24.121L17.4301 24.0396L17.7992 23.6616C19.167 22.33 20.1295 20.643 20.5763 18.7936C20.7075 18.1873 20.7801 17.57 20.7931 16.95V7.90615L15.4088 11.1224V16.822C15.3994 17.1313 15.3602 17.439 15.2916 17.7409C15.1178 18.5782 14.7305 19.3571 14.1667 20.0033C13.8207 20.4024 13.411 20.7423 12.9539 21.0095C11.818 21.6859 10.4585 21.8882 9.1728 21.5721C7.88706 21.256 6.77978 20.4473 6.09318 19.3229C5.74126 18.6612 5.53855 17.9315 5.49909 17.1843C5.45964 16.4371 5.58438 15.6903 5.86469 14.9958C6.09511 14.3956 6.44913 13.8498 6.90411 13.3931C7.35908 12.9365 7.90502 12.5791 8.50703 12.3437L8.72967 12.2681C8.76075 12.2512 8.79439 12.2394 8.82927 12.2332C8.94645 12.1867 9.06948 12.1518 9.18666 12.1111H9.24525C9.77594 11.9594 10.3284 11.8965 10.8799 11.925C10.998 11.9319 11.1155 11.9474 11.2314 11.9715C11.3846 11.9873 11.5357 12.0185 11.6825 12.0646C11.7865 12.0848 11.8884 12.114 11.9872 12.1518C12.1079 12.1841 12.2256 12.2269 12.3387 12.2797C12.4588 12.3233 12.5745 12.3778 12.6844 12.4426C12.8017 12.4911 12.9136 12.5515 13.0184 12.6229C13.2076 12.7349 13.3878 12.8613 13.5574 13.0009L13.6453 13.0765V6.96978C13.1319 6.73168 12.5906 6.55781 12.0341 6.45216C11.3422 6.31394 10.6357 6.26119 9.93074 6.29513C8.20553 6.39172 6.53462 6.92859 5.0796 7.8538C3.21914 8.99282 1.75504 10.6705 0.88453 12.6608C0.0140151 14.6511 -0.22109 16.8585 0.210885 18.9855L0.316344 19.4508C0.363215 19.6311 0.410087 19.8114 0.474534 19.9917C0.667221 20.6073 0.914251 21.2047 1.21275 21.7772C1.25962 21.8644 1.30649 21.9575 1.35922 22.0447V22.0796C4.49371 27.5699 12.4208 28.5353 16.8501 24.5747L17.1196 24.3304Z" fill="white"/>
<path d="M18.8245 24.6212C18.6839 24.7724 18.5491 24.9178 18.3968 25.069L18.262 25.2202L18.2269 25.2551L17.9105 25.5517L17.8636 25.5924L17.559 25.86C17.0741 26.2888 16.5548 26.6778 16.0064 27.0232H20.7931V21.8121C20.253 22.8236 19.592 23.7667 18.8245 24.6212Z" fill="white"/>
<path d="M32.0509 12.8418V5.39648L44.1495 12.8418V20.2871L32.0509 27.7324V20.2871L37.0003 16.5645L32.0509 12.8418Z" fill="#F44848"/>
</svg>
