<svg width="16" height="16" viewBox="0 0 16 16" fill="none" xmlns="http://www.w3.org/2000/svg">
<path d="M14.6667 7.33325V5.46659C14.6667 4.71985 14.6667 4.34648 14.5214 4.06126C14.3936 3.81038 14.1896 3.60641 13.9387 3.47858C13.6535 3.33325 13.2801 3.33325 12.5334 3.33325H3.46671C2.71997 3.33325 2.3466 3.33325 2.06139 3.47858C1.8105 3.60641 1.60653 3.81038 1.4787 4.06126C1.33337 4.34648 1.33337 4.71985 1.33337 5.46659V7.86659C1.33337 8.61332 1.33337 8.98669 1.4787 9.27191C1.60653 9.52279 1.8105 9.72676 2.06139 9.85459C2.3466 9.99992 2.71997 9.99992 3.46671 9.99992H7.33337M8.00004 6.66659H8.00337M11.3334 6.66659H11.3367M4.66671 6.66659H4.67004M12.8334 11.3333V10.1666C12.8334 9.52225 12.311 8.99992 11.6667 8.99992C11.0224 8.99992 10.5 9.52225 10.5 10.1666V11.3333M8.16671 6.66659C8.16671 6.75863 8.09209 6.83325 8.00004 6.83325C7.90799 6.83325 7.83337 6.75863 7.83337 6.66659C7.83337 6.57454 7.90799 6.49992 8.00004 6.49992C8.09209 6.49992 8.16671 6.57454 8.16671 6.66659ZM11.5 6.66659C11.5 6.75863 11.4254 6.83325 11.3334 6.83325C11.2413 6.83325 11.1667 6.75863 11.1667 6.66659C11.1667 6.57454 11.2413 6.49992 11.3334 6.49992C11.4254 6.49992 11.5 6.57454 11.5 6.66659ZM4.83337 6.66659C4.83337 6.75863 4.75875 6.83325 4.66671 6.83325C4.57466 6.83325 4.50004 6.75863 4.50004 6.66659C4.50004 6.57454 4.57466 6.49992 4.66671 6.49992C4.75875 6.49992 4.83337 6.57454 4.83337 6.66659ZM10.4 13.9999H12.9334C13.3067 13.9999 13.4934 13.9999 13.636 13.9273C13.7615 13.8633 13.8635 13.7614 13.9274 13.6359C14 13.4933 14 13.3066 14 12.9333V12.3999C14 12.0266 14 11.8399 13.9274 11.6973C13.8635 11.5718 13.7615 11.4698 13.636 11.4059C13.4934 11.3333 13.3067 11.3333 12.9334 11.3333H10.4C10.0267 11.3333 9.83999 11.3333 9.69738 11.4059C9.57194 11.4698 9.46995 11.5718 9.40604 11.6973C9.33337 11.8399 9.33337 12.0266 9.33337 12.3999V12.9333C9.33337 13.3066 9.33337 13.4933 9.40604 13.6359C9.46995 13.7614 9.57194 13.8633 9.69738 13.9273C9.83999 13.9999 10.0267 13.9999 10.4 13.9999Z" stroke="#151515" stroke-width="1.33333" stroke-linecap="round" stroke-linejoin="round"/>
</svg>
